<svg width="24" height="24" viewBox="0 0 24 24" fill="none" xmlns="http://www.w3.org/2000/svg">
<circle cx="12" cy="12" r="9" fill="#1C2E35"/>
<path d="M2 12C2 6.47656 6.47656 2 12 2C17.5234 2 22 6.47656 22 12C22 17.5234 17.5234 22 12 22C6.47656 22 2 17.5234 2 12ZM8.83594 10.1289L10.6758 11.9648L8.83594 13.8359C8.47266 14.2031 8.47266 14.7969 8.83594 15.1289C9.20312 15.5273 9.79688 15.5273 10.1289 15.1289L11.9648 13.3242L13.8359 15.1289C14.2031 15.5273 14.7969 15.5273 15.1289 15.1289C15.5273 14.7969 15.5273 14.2031 15.1289 13.8359L13.3242 11.9648L15.1289 10.1289C15.5273 9.79688 15.5273 9.20312 15.1289 8.83594C14.7969 8.47266 14.2031 8.47266 13.8359 8.83594L11.9648 10.6758L10.1289 8.83594C9.79688 8.47266 9.20312 8.47266 8.83594 8.83594C8.47266 9.20312 8.47266 9.79688 8.83594 10.1289Z" fill="#CCEDFF"/>
</svg>
