<svg width="40" height="40" viewBox="0 0 40 40" fill="none" xmlns="http://www.w3.org/2000/svg">
<circle cx="20" cy="20" r="20" fill="#CCEDFF"/>
<path d="M21.2677 15.5053L20.4975 14.6784H18.1246L17.2631 15.5053L16.5439 29.1149C16.5439 28.9976 19.2691 29.1838 19.2691 29.1838C19.2691 29.1838 21.996 28.9976 21.996 29.1149L21.2677 15.5053Z" fill="#EEEFE1"/>
<path d="M19.2618 29.2602C18.0863 29.1782 16.7721 29.1205 16.5932 29.167C16.5859 29.1748 16.5771 29.181 16.5674 29.1852C16.5577 29.1894 16.5472 29.1914 16.5366 29.1913C16.5169 29.1903 16.4984 29.1816 16.4848 29.1671C16.4712 29.1525 16.4636 29.1332 16.4636 29.113L17.1846 15.5053C17.1862 15.4856 17.1946 15.4671 17.2083 15.4531L18.0699 14.6263C18.0837 14.6131 18.102 14.6058 18.121 14.6058H20.4938C20.5041 14.6055 20.5143 14.6076 20.5238 14.6118C20.5333 14.6159 20.5417 14.6222 20.5486 14.63L21.3188 15.4569C21.3315 15.4699 21.3392 15.487 21.3407 15.5053L22.0599 29.113C22.0601 29.1231 22.0584 29.133 22.0549 29.1424C22.0514 29.1518 22.0461 29.1603 22.0393 29.1676C22.0325 29.1748 22.0244 29.1807 22.0154 29.1847C22.0064 29.1888 21.9967 29.191 21.9869 29.1913C21.9766 29.1912 21.9665 29.189 21.9571 29.1848C21.9477 29.1807 21.9392 29.1746 21.9321 29.167C21.7496 29.1205 20.4391 29.1782 19.2636 29.2602H19.2618ZM16.9345 28.9976C17.1463 28.9976 17.4639 28.9976 17.9457 29.0292C18.5755 29.059 19.1997 29.1019 19.2618 29.1056C19.3238 29.1093 19.9499 29.059 20.5796 29.0292C21.0217 28.9947 21.4655 28.9879 21.9084 29.0088L21.1947 15.5369L20.4646 14.7529H18.1538L17.3379 15.5388L16.6242 29.0088C16.7275 29.0003 16.831 28.9972 16.9345 28.9994V28.9976Z" fill="#1C2E35"/>
<path d="M20.7713 10.7043C20.2698 10.6511 19.7659 10.6269 19.2618 10.6317C18.7583 10.6269 18.2549 10.6511 17.7541 10.7043L17.6993 11.79C17.6993 11.79 18.4696 11.7379 19.2618 11.7379C20.0539 11.7379 20.826 11.79 20.826 11.79L20.7713 10.7043Z" fill="#FEC627"/>
<path d="M18.4952 10.6261C18.4491 10.785 18.4161 10.9476 18.3966 11.1121C18.3765 11.2797 18.3619 11.4474 18.3583 11.6168C18.3382 11.4492 18.3254 11.2797 18.3218 11.1084C18.3158 10.9354 18.3244 10.7622 18.3473 10.5907L18.4952 10.6261Z" fill="#EEEFE1"/>
<path d="M20.2127 11.7118H20.0922C20.0922 11.4492 20.0448 10.6242 20.043 10.6168L20.1634 10.6075C20.1616 10.6372 20.22 11.4418 20.2127 11.7118Z" fill="#EEEFE1"/>
<path d="M19.3385 10.5739H19.187V11.6764H19.3385V10.5739Z" fill="#EEEFE1"/>
<path d="M20.7895 11.0861C20.3423 11.0395 19.8221 11.0153 19.2618 11.0153C18.7014 11.0153 18.1794 11.0358 17.7358 11.0823V11.2108C18.1794 11.1643 18.7142 11.1382 19.2691 11.1382C19.8239 11.1382 20.3642 11.1643 20.8059 11.2108L20.7895 11.0861Z" fill="#EEEFE1"/>
<path d="M20.7659 10.5758C20.3241 10.5311 19.8076 10.5088 19.2618 10.5088C18.7597 10.5054 18.2577 10.5278 17.7578 10.5758V10.7043C18.2588 10.6541 18.762 10.6299 19.2655 10.6317C19.8131 10.6317 20.3369 10.6615 20.775 10.7043C20.7677 10.6372 20.7677 10.6261 20.7659 10.5758Z" fill="#EEEFE1"/>
<path d="M21.8829 12.0936C21.8829 12.3394 20.7093 12.5089 19.2618 12.5089C17.8144 12.5089 16.6407 12.3394 16.6407 12.0936C16.6407 11.8477 17.8144 11.6168 19.2618 11.6168C20.7093 11.6168 21.8829 11.8477 21.8829 12.0936Z" fill="#1C2E35"/>
<path d="M17.4748 15.9802C17.4748 16.5202 17.4748 17.0603 17.4584 17.6004C17.442 18.1404 17.431 18.6805 17.4128 19.2205L17.2887 22.4591C17.2485 23.5392 17.1992 24.6175 17.1536 25.6976L17.1189 26.5058L17.0806 27.3159C17.0568 27.856 17.0313 28.3942 17.0039 28.9343H16.8524C16.8707 28.3967 16.8901 27.8572 16.9108 27.3159L16.9419 26.5058L16.9747 25.6976C17.0203 24.6175 17.0623 23.5373 17.1153 22.4591L17.2631 19.2224C17.2905 18.6823 17.3197 18.1423 17.3544 17.6041C17.389 17.0659 17.4237 16.5184 17.4748 15.9802Z" fill="#1C2E35"/>
<path d="M21.4814 19.5185C21.2714 19.3118 20.0704 19.1721 19.2618 19.1721C18.4532 19.1721 17.254 19.3118 17.0441 19.5185L16.8324 23.5057C16.8324 23.5057 17.2394 23.2375 19.2618 23.2375C21.2842 23.2375 21.6913 23.5057 21.6913 23.5057L21.4814 19.5185Z" fill="#FEC627"/>
<path d="M20.9301 15.3526L20.9885 18.2745L20.7786 15.36L20.9301 15.3526Z" fill="#1C2E35"/>
<path d="M20.7348 15.2837L20.7804 17.9114L20.5851 15.2911L20.7348 15.2837Z" fill="#1C2E35"/>
<path d="M20.5413 15.2129L20.5723 17.5482L20.3898 15.2204L20.5413 15.2129Z" fill="#1C2E35"/>
<path d="M20.346 15.1422L20.3642 17.1832L20.1963 15.1496L20.346 15.1422Z" fill="#1C2E35"/>
<path d="M20.4592 23.7273C20.4318 23.7273 20.5048 23.9135 20.5231 23.9731C20.5413 24.0327 20.5979 24.0997 20.576 24.1891C20.6673 24.0457 20.5632 23.6956 20.4592 23.7273Z" fill="#1C2E35"/>
<path d="M20.9556 24.1221C20.941 24.1221 20.9264 24.2245 20.9209 24.2525C20.9224 24.293 20.9108 24.3329 20.8881 24.3661C20.9684 24.3214 21.0122 24.137 20.9556 24.1221Z" fill="#1C2E35"/>
<path d="M17.8819 16.5966C17.8819 17.3415 17.8819 18.0995 17.8654 18.85C17.8654 19.2224 17.849 19.5949 17.8399 19.9766L17.807 21.1033L17.765 22.2207C17.7486 22.5932 17.734 22.9656 17.7139 23.3381C17.6774 24.083 17.6373 24.8391 17.5807 25.5877C17.5807 24.8428 17.5807 24.0849 17.5971 23.3344C17.5971 22.9619 17.6135 22.5894 17.6227 22.2077L17.6555 21.0903L17.6975 19.9636C17.7139 19.5911 17.7285 19.2187 17.7486 18.8462C17.7888 18.0864 17.8253 17.3415 17.8819 16.5966Z" fill="#1C2E35"/>
<path d="M17.8819 23.3008C17.8819 23.6733 17.871 24.0458 17.8582 24.407C17.8582 24.5933 17.8436 24.7795 17.8363 24.9657L17.8089 25.5244L17.7761 26.0831C17.7651 26.2693 17.7542 26.4556 17.7396 26.6418C17.714 27.0143 17.6848 27.3774 17.6465 27.7461C17.6465 27.3737 17.6556 27.0012 17.6702 26.6381C17.6702 26.4518 17.6848 26.2656 17.6921 26.0794L17.7177 25.5207L17.7505 24.962C17.7633 24.7758 17.7743 24.5896 17.787 24.4033C17.8144 24.0271 17.8436 23.6584 17.8819 23.3008Z" fill="#1C2E35"/>
<path d="M17.1262 28.7741L17.1755 27.193C17.1919 26.666 17.212 26.139 17.2321 25.6138L17.2905 24.0327L17.3562 22.4516L17.4237 20.8799L17.4548 20.0884L17.4913 19.2988C17.5424 18.2466 17.6008 17.1925 17.6738 16.1329C17.6738 17.1888 17.6537 18.2428 17.6245 19.2988L17.6008 20.0902L17.5734 20.8799L17.5205 22.4609L17.4657 24.042L17.4055 25.6212C17.3854 26.1483 17.3653 26.6753 17.3416 27.2023L17.2722 28.7816L17.1262 28.7741Z" fill="#1C2E35"/>
<path d="M18.988 25.7888H18.8986L18.9515 24.2506C18.952 24.2386 18.957 24.2272 18.9655 24.2189C18.974 24.2105 18.9853 24.2059 18.9971 24.2059H19.6597C19.6715 24.2064 19.6826 24.2115 19.6908 24.2202C19.699 24.2289 19.7035 24.2404 19.7035 24.2525V25.7907H19.6141V24.3009H19.0391L18.988 25.7888Z" fill="#1C2E35"/>
<path d="M19.8897 26.2153H18.7142C18.7021 26.2153 18.6905 26.2104 18.6819 26.2017C18.6734 26.193 18.6686 26.1811 18.6686 26.1688V25.7963C18.6686 25.784 18.6734 25.7721 18.6819 25.7634C18.6905 25.7547 18.7021 25.7498 18.7142 25.7498H19.8897C19.9015 25.7502 19.9126 25.7554 19.9208 25.764C19.9289 25.7727 19.9335 25.7843 19.9335 25.7963V26.1688C19.9335 26.1808 19.9289 26.1924 19.9208 26.2011C19.9126 26.2097 19.9015 26.2148 19.8897 26.2153ZM18.7598 26.1241H19.844V25.8336H18.7598V26.1241Z" fill="#1C2E35"/>
<path d="M18.977 24.7702L19.6579 24.7143V24.9862H18.9697V24.9173L19.3512 24.8857L19.2782 24.8354L18.9752 24.8223L18.977 24.7702Z" fill="#1C2E35"/>
<path d="M18.9899 24.4424L19.6579 24.3921V24.2506H18.9953L18.9899 24.4424Z" fill="#1C2E35"/>
<path d="M18.988 17.8685H18.8986L18.9515 16.2223C18.952 16.2103 18.957 16.1989 18.9655 16.1906C18.974 16.1822 18.9853 16.1776 18.9971 16.1776H19.6597C19.6715 16.1781 19.6826 16.1832 19.6908 16.1919C19.699 16.2005 19.7035 16.2121 19.7035 16.2241V17.8704H19.6141V16.2707H19.0391L18.988 17.8685Z" fill="#1C2E35"/>
<path d="M18.977 16.7772L19.6579 16.7177V17.0082H18.9697V16.9337L19.3512 16.9002L19.2782 16.8461L18.9752 16.8312L18.977 16.7772Z" fill="#1C2E35"/>
<path d="M18.9899 16.4252L19.6579 16.3712V16.2204H18.9953L18.9899 16.4252Z" fill="#1C2E35"/>
<path d="M19.8897 18.295H18.7142C18.7021 18.295 18.6905 18.2901 18.6819 18.2814C18.6734 18.2726 18.6686 18.2608 18.6686 18.2485V17.8667C18.6686 17.8543 18.6734 17.8425 18.6819 17.8338C18.6905 17.825 18.7021 17.8201 18.7142 17.8201H19.8897C19.9015 17.8206 19.9126 17.8257 19.9208 17.8344C19.9289 17.8431 19.9335 17.8547 19.9335 17.8667V18.2485C19.9335 18.2605 19.9289 18.2721 19.9208 18.2807C19.9126 18.2894 19.9015 18.2945 19.8897 18.295ZM18.7598 18.2019H19.844V17.9132H18.7598V18.2019Z" fill="#1C2E35"/>
<path d="M19.0227 20.878L19.0337 20.526L19.6123 20.4795V20.8258L19.0227 20.878Z" fill="#EEEFE1"/>
<path d="M19.3512 21.0046L19.0172 21.0344L19.0209 20.9376L19.2782 20.9506L19.3512 21.0046Z" fill="#EEEFE1"/>
<path d="M19.0154 21.1126H19.6123V21.8967H18.9899L19.0154 21.1126Z" fill="#EEEFE1"/>
<path d="M19.8423 22.0159H18.7581V22.3045H19.8423V22.0159Z" fill="#EEEFE1"/>
<path d="M18.7817 21.8967H18.8785L18.831 20.2988L18.7817 21.8967Z" fill="#EEEFE1"/>
<path d="M21.5963 12.5089L21.1181 13.4773L21.2714 15.5593C20.615 15.3933 19.9397 15.3175 19.2636 15.334C18.5875 15.3174 17.9122 15.3932 17.2558 15.5593L17.4091 13.4773L16.9291 12.5089V12.0638C16.9291 12.0638 17.6373 11.7379 19.2636 11.7379C20.8899 11.7379 21.5981 12.0638 21.5981 12.0638L21.5963 12.5089Z" fill="#EEEFE1"/>
<path d="M17.254 15.6357C17.2367 15.6358 17.22 15.6299 17.2065 15.6189C17.197 15.6112 17.1895 15.6012 17.1847 15.5898C17.1799 15.5785 17.178 15.566 17.1791 15.5537L17.3306 13.4922L16.8615 12.5443C16.8588 12.5326 16.8588 12.5205 16.8615 12.5089V12.0638C16.8619 12.0491 16.8662 12.0347 16.8739 12.0223C16.8816 12.0098 16.8925 11.9997 16.9053 11.993C16.9364 11.98 17.6464 11.6615 19.2782 11.6615C20.91 11.6615 21.6145 11.98 21.651 11.993C21.6642 11.9994 21.6752 12.0094 21.683 12.0219C21.6908 12.0345 21.6949 12.049 21.6948 12.0638V12.5089C21.6976 12.5205 21.6976 12.5326 21.6948 12.5443L21.2257 13.4922L21.3772 15.5537C21.378 15.566 21.376 15.5783 21.3712 15.5897C21.3665 15.601 21.3591 15.611 21.3499 15.6189C21.3403 15.6269 21.329 15.6322 21.3168 15.6345C21.3047 15.6368 21.2922 15.6359 21.2805 15.6319C20.6304 15.4691 19.962 15.3946 19.2928 15.4103C18.6241 15.3946 17.9564 15.4691 17.3069 15.6319L17.254 15.6357ZM17.0039 12.4996L17.4748 13.4512C17.4783 13.4646 17.4783 13.4787 17.4748 13.4922L17.3288 15.4643C17.9606 15.3199 18.6071 15.2536 19.2545 15.2669C19.9018 15.2534 20.5484 15.3197 21.1801 15.4643L21.0359 13.4922C21.0324 13.4787 21.0324 13.4646 21.0359 13.4512L21.5068 12.4996V12.1271C21.3243 12.0601 20.6125 11.8254 19.2472 11.8254C17.8819 11.8254 17.1664 12.0601 16.9893 12.1271L17.0039 12.4996Z" fill="#1C2E35"/>
<path d="M16.9528 12.5815L16.9017 12.4362C16.9309 12.4251 17.641 12.1699 19.2618 12.1699C20.8826 12.1699 21.5927 12.4251 21.6219 12.4362L21.5708 12.5815C21.5708 12.5815 20.8534 12.3245 19.2618 12.3245C17.6702 12.3245 16.9601 12.5796 16.9528 12.5815Z" fill="#1C2E35"/>
<path d="M21.2714 15.5593C20.615 15.3933 19.9398 15.3175 19.2637 15.334C18.5875 15.3174 17.9123 15.3932 17.2559 15.5593L17.4092 13.4772C18.0165 13.3299 18.6396 13.2617 19.2637 13.2743C19.8883 13.2617 20.5121 13.3299 21.12 13.4772L21.2714 15.5593Z" fill="#FEC627"/>
<path d="M16.8488 10.7825C16.8345 10.7824 16.8206 10.7781 16.8086 10.7702C16.7967 10.7623 16.7872 10.7511 16.7812 10.7378C16.777 10.7287 16.7745 10.7187 16.774 10.7086C16.7735 10.6985 16.775 10.6883 16.7784 10.6788C16.7818 10.6692 16.7871 10.6605 16.7938 10.653C16.8006 10.6456 16.8087 10.6396 16.8177 10.6354C17.1536 10.4734 18.1666 10.3654 19.3403 10.3654C20.3478 10.3654 21.2513 10.4454 21.6967 10.5739C21.7062 10.5767 21.715 10.5814 21.7227 10.5877C21.7305 10.594 21.7369 10.6017 21.7416 10.6106C21.7464 10.6194 21.7494 10.6291 21.7504 10.6391C21.7515 10.6491 21.7506 10.6593 21.7478 10.6689C21.7453 10.6787 21.7409 10.6879 21.7347 10.6959C21.7286 10.7039 21.721 10.7106 21.7123 10.7155C21.7036 10.7203 21.694 10.7234 21.6841 10.7243C21.6742 10.7253 21.6642 10.7242 21.6547 10.7211C21.2294 10.5981 20.3204 10.5181 19.3403 10.5181C18.205 10.5181 17.1938 10.6242 16.8816 10.7751C16.8711 10.7793 16.8601 10.7818 16.8488 10.7825Z" fill="#1C2E35"/>
<path d="M16.8488 11.2872C16.8348 11.2871 16.8211 11.283 16.8091 11.2754C16.7972 11.2679 16.7876 11.2571 16.7812 11.2444C16.777 11.2352 16.7745 11.2253 16.774 11.2151C16.7735 11.205 16.775 11.1949 16.7784 11.1853C16.7818 11.1758 16.7871 11.1671 16.7938 11.1596C16.8006 11.1522 16.8087 11.1462 16.8177 11.1419C17.1518 10.9799 18.1666 10.8701 19.3403 10.8701C20.3478 10.8701 21.2513 10.9501 21.6967 11.0786C21.7062 11.0814 21.715 11.0861 21.7227 11.0924C21.7305 11.0987 21.7369 11.1064 21.7416 11.1153C21.7464 11.1241 21.7494 11.1338 21.7504 11.1438C21.7515 11.1538 21.7506 11.164 21.7478 11.1736C21.7423 11.1932 21.7294 11.2099 21.712 11.2199C21.6946 11.23 21.6741 11.2328 21.6547 11.2276C21.2276 11.1047 20.3204 11.0246 19.3403 11.0246C18.205 11.0246 17.1938 11.1289 16.8816 11.2798C16.8714 11.2849 16.8602 11.2874 16.8488 11.2872Z" fill="#1C2E35"/>
<path d="M17.0259 10.6652H16.8744V11.9781H17.0259V10.6652Z" fill="#1C2E35"/>
<path d="M21.6493 10.6205H21.4978V11.9017H21.6493V10.6205Z" fill="#1C2E35"/>
<path d="M17.2303 12.4102L17.6318 13.4195L17.5935 13.4381L17.0934 12.4753L17.2303 12.4102Z" fill="#1C2E35"/>
<path d="M17.3836 12.3878L17.745 13.3972L17.7122 13.4102L17.2997 12.4213L17.3836 12.3878Z" fill="#1C2E35"/>
<path d="M17.5625 12.3561L17.8271 13.2947L17.4767 12.3878L17.5625 12.3561Z" fill="#1C2E35"/>
<path d="M17.8381 12.3208L18.079 13.2407L17.7797 12.3394L17.8381 12.3208Z" fill="#1C2E35"/>
<path d="M19.2618 14.9857C17.8418 14.9857 17.0952 15.2502 17.0952 15.2502V15.6394C17.8728 15.3302 19.2618 15.3451 19.2618 15.3451C19.2618 15.3451 20.6508 15.3302 21.4284 15.6394V15.2502C21.4284 15.2502 20.6819 14.9857 19.2618 14.9857Z" fill="#EEEFE1"/>
<path d="M21.4284 15.7157H21.401C20.6472 15.4159 19.2764 15.4271 19.2636 15.4289C19.2509 15.4308 17.8783 15.4159 17.1226 15.7157C17.1119 15.7216 17.1 15.7247 17.0879 15.7247C17.0758 15.7247 17.0639 15.7216 17.0532 15.7157C17.0432 15.7086 17.035 15.6991 17.0293 15.6881C17.0236 15.6771 17.0205 15.6649 17.0204 15.6524V15.2632C17.0206 15.2472 17.0256 15.2317 17.0348 15.2187C17.0439 15.2057 17.0567 15.1959 17.0715 15.1906C17.1025 15.1794 17.8454 14.9224 19.2618 14.9224C20.6782 14.9224 21.4229 15.1794 21.4521 15.1906C21.4668 15.1961 21.4794 15.206 21.4886 15.2189C21.4977 15.2319 21.5028 15.2473 21.5032 15.2632V15.6524C21.5031 15.6649 21.5001 15.6771 21.4943 15.6881C21.4886 15.6991 21.4804 15.7086 21.4704 15.7157C21.4567 15.7199 21.4421 15.7199 21.4284 15.7157ZM19.3074 15.2688C19.5429 15.2688 20.6344 15.2818 21.3536 15.5295V15.3079C20.6707 15.1282 19.9668 15.0455 19.2618 15.0621C18.5574 15.0451 17.854 15.1278 17.1719 15.3079V15.5295C17.964 15.2576 19.2089 15.2688 19.2636 15.2688H19.3074Z" fill="#1C2E35"/>
<path d="M18.1192 15.7083C18.0645 15.7083 18.1521 15.8945 18.1977 15.9802C18.2452 15.8796 18.1904 15.7139 18.1192 15.7083Z" fill="#1C2E35"/>
<path d="M18.7014 15.7008C18.6759 15.6841 18.6722 15.8014 18.6759 15.8479C18.7179 15.8126 18.7288 15.7194 18.7014 15.7008Z" fill="#1C2E35"/>
<path d="M17.3435 9.23494C17.3435 9.23494 18.2324 9.31316 19.2619 9.31316C20.2913 9.31316 21.182 9.23494 21.182 9.23494C20.5488 9.11191 19.9064 9.04462 19.2619 9.03381C18.6179 9.0447 17.9761 9.11198 17.3435 9.23494Z" fill="#1C2E35"/>
<path d="M19.2618 9.37464C18.2414 9.37464 17.347 9.29828 17.3379 9.29642C17.3234 9.2955 17.3097 9.28907 17.2996 9.27839C17.2894 9.2677 17.2836 9.25354 17.2832 9.23869C17.2824 9.2241 17.2868 9.20972 17.2955 9.19812C17.3042 9.18651 17.3166 9.17845 17.3306 9.17537C17.9675 9.05198 18.6136 8.98407 19.2618 8.97238C19.9106 8.98399 20.5572 9.0519 21.1947 9.17537C21.2087 9.17845 21.2212 9.18651 21.2299 9.19812C21.2386 9.20972 21.2429 9.2241 21.2422 9.23869C21.2417 9.25354 21.2359 9.2677 21.2258 9.27839C21.2156 9.28907 21.202 9.2955 21.1874 9.29642C21.1783 9.29828 20.2821 9.37464 19.2618 9.37464ZM17.8618 9.20889C18.2177 9.22938 18.7215 9.25173 19.2618 9.25173C19.802 9.25173 20.3076 9.22938 20.6636 9.20889C20.1994 9.13856 19.731 9.10061 19.2618 9.09529C18.7931 9.10068 18.3254 9.13863 17.8618 9.20889Z" fill="#1C2E35"/>
<path d="M19.375 8.10642V7.8699L19.2619 7.89039L19.1487 7.8699V8.10642L17.3435 9.23496C17.976 9.11101 18.6179 9.04371 19.2619 9.03384C19.9064 9.04364 20.549 9.11094 21.182 9.23496L19.375 8.10642Z" fill="#EEEFE1"/>
<path d="M19.2618 8.16785L20.1744 8.74702L20.3715 8.84759L19.7911 8.82896L20.2803 8.95188L19.2782 8.93139L17.9348 9.03382C18.143 8.92262 18.3706 8.85427 18.6047 8.83269L18.3492 8.78241L18.5664 8.71722C18.5664 8.71722 18.5262 8.70233 18.6357 8.5999C18.7452 8.49747 19.2618 8.16785 19.2618 8.16785Z" fill="#1C2E35"/>
<path d="M19.2619 8.21629C19.2722 8.22765 19.2838 8.23766 19.2965 8.24608L20.4574 8.97238C20.061 8.91936 19.6617 8.89137 19.2619 8.88857C18.8626 8.8913 18.464 8.91929 18.0681 8.97238L19.229 8.24608C19.2416 8.23819 19.2527 8.22811 19.2619 8.21629ZM19.375 7.87921L19.2619 7.8997L19.1487 7.87921V8.11572L17.3435 9.24427C17.976 9.12032 18.6179 9.05302 19.2619 9.04314C19.9064 9.05295 20.549 9.12025 21.182 9.24427L19.375 8.11572V7.87921Z" fill="#EEEFE1"/>
<path d="M17.3434 9.2964C17.3312 9.29649 17.3193 9.29281 17.3091 9.28583C17.299 9.27884 17.2913 9.26889 17.2868 9.25729C17.2817 9.244 17.2812 9.22928 17.2855 9.21569C17.2899 9.20209 17.2987 9.19046 17.3105 9.1828L19.0884 8.06542V7.8643C19.0887 7.85542 19.0908 7.84672 19.0946 7.83871C19.0984 7.8307 19.1037 7.82357 19.1103 7.81774C19.117 7.81203 19.125 7.8079 19.1335 7.80565C19.142 7.8034 19.1509 7.80307 19.1595 7.8047L19.2618 7.82333L19.3658 7.8047C19.3742 7.80309 19.3828 7.80343 19.391 7.80569C19.3992 7.80795 19.4068 7.81207 19.4133 7.81774C19.4201 7.82333 19.4256 7.83041 19.4294 7.83847C19.4332 7.84653 19.4352 7.85536 19.4352 7.8643V8.06542L21.213 9.1828C21.2254 9.1899 21.2349 9.20139 21.2396 9.21511C21.2443 9.22883 21.2439 9.24383 21.2385 9.25729C21.2332 9.27104 21.2234 9.28247 21.2108 9.28961C21.1981 9.29675 21.1834 9.29915 21.1692 9.2964C20.5404 9.17193 19.9021 9.10463 19.2618 9.09527C18.6214 9.10476 17.9831 9.17207 17.3544 9.2964H17.3434ZM19.2618 8.97236C19.8036 8.97919 20.3442 9.02775 20.8789 9.11762L19.3439 8.15854C19.3351 8.15312 19.3277 8.14548 19.3226 8.13635C19.3175 8.12722 19.3148 8.11691 19.3147 8.1064V7.94437H19.2727H19.249H19.2052V8.1064C19.205 8.11667 19.2024 8.12675 19.1976 8.13582C19.1929 8.14488 19.1861 8.15267 19.1778 8.15854L17.6427 9.11762C18.1781 9.02766 18.7193 8.9791 19.2618 8.97236Z" fill="#1C2E35"/>
<path d="M19.2619 7.89037C19.4494 7.89037 19.6014 7.73529 19.6014 7.54399C19.6014 7.35268 19.4494 7.1976 19.2619 7.1976C19.0744 7.1976 18.9224 7.35268 18.9224 7.54399C18.9224 7.73529 19.0744 7.89037 19.2619 7.89037Z" fill="#EEEFE1"/>
<path d="M19.2618 7.95182C19.1561 7.95133 19.0549 7.90814 18.9803 7.83171C18.9058 7.75528 18.8639 7.65182 18.8639 7.54398C18.8644 7.43646 18.9064 7.33348 18.981 7.25745C19.0555 7.18142 19.1564 7.13849 19.2618 7.138C19.3675 7.138 19.4689 7.18071 19.5438 7.25679C19.6187 7.33288 19.661 7.43614 19.6615 7.54398C19.6615 7.65214 19.6194 7.75588 19.5445 7.83237C19.4695 7.90885 19.3678 7.95182 19.2618 7.95182ZM19.2618 7.26091C19.1882 7.26091 19.1176 7.29073 19.0656 7.34382C19.0136 7.39691 18.9844 7.4689 18.9844 7.54398C18.9841 7.58131 18.9911 7.61832 19.005 7.65288C19.0188 7.68743 19.0392 7.71886 19.065 7.74534C19.0908 7.77183 19.1214 7.79284 19.1552 7.80718C19.189 7.82153 19.2252 7.82891 19.2618 7.82891C19.2985 7.82916 19.335 7.82196 19.369 7.80772C19.4029 7.79349 19.4338 7.77251 19.4598 7.74601C19.4858 7.7195 19.5064 7.68799 19.5203 7.65331C19.5342 7.61863 19.5413 7.58147 19.5411 7.54398C19.5411 7.50665 19.5338 7.46969 19.5198 7.43522C19.5057 7.40076 19.4851 7.36947 19.4592 7.34316C19.4332 7.31685 19.4024 7.29604 19.3685 7.28192C19.3347 7.26781 19.2984 7.26066 19.2618 7.26091Z" fill="#1C2E35"/>
<path d="M19.0318 7.38383C19.0179 7.4078 19.009 7.43444 19.0056 7.46209C19.0022 7.48973 19.0044 7.51779 19.0121 7.54452C19.0198 7.57125 19.0328 7.59607 19.0504 7.61745C19.0679 7.63882 19.0895 7.65629 19.1139 7.66876C19.1652 7.69101 19.222 7.69596 19.2762 7.6829C19.3304 7.66983 19.3791 7.63943 19.4151 7.59613C19.4151 7.79726 19.1632 7.85871 19.0172 7.76374C18.9816 7.74024 18.9516 7.70903 18.9292 7.67233C18.9068 7.63564 18.8926 7.59436 18.8876 7.55143C18.8785 7.50597 18.8785 7.45909 18.8876 7.41363C18.8876 7.39687 18.9168 7.32051 18.9369 7.31679C18.957 7.31306 18.9697 7.34658 18.9789 7.35217L19.0318 7.38383Z" fill="#1C2E35"/>
<path d="M19.187 7.19947L19.2618 6.00015L19.3367 7.19947H19.187Z" fill="#1C2E35"/>
<path d="M19.2618 9.06363C18.3491 9.06363 17.619 9.15861 17.619 9.27407V9.56273H20.9173V9.27407C20.9118 9.15861 20.1726 9.06363 19.2618 9.06363Z" fill="#EEEFE1"/>
<path d="M20.9119 9.60742H17.6063C17.5945 9.60743 17.5832 9.60278 17.5747 9.59445C17.5662 9.58612 17.5611 9.57475 17.5607 9.56272V9.27407C17.5607 9.21075 17.6227 9.13812 18.0827 9.08784C18.4717 9.04272 18.863 9.02158 19.2545 9.02452C19.646 9.02147 20.0373 9.04262 20.4263 9.08784C20.8881 9.14557 20.9502 9.2182 20.9502 9.27407V9.56272C20.9499 9.57356 20.9459 9.58395 20.9389 9.59211C20.9319 9.60027 20.9224 9.60569 20.9119 9.60742ZM17.6574 9.51617H20.8662V9.27965C20.8078 9.20888 20.2128 9.11018 19.2618 9.11018C18.3109 9.11018 17.7158 9.20888 17.6574 9.27965V9.51617Z" fill="#1C2E35"/>
<path d="M20.9118 9.56271C20.9118 9.67817 20.1726 9.77314 19.2691 9.77314C18.3656 9.77314 17.6263 9.67817 17.6263 9.56271C17.6263 9.44724 18.3564 9.3504 19.2691 9.3504C20.1817 9.3504 20.9118 9.44538 20.9118 9.56271Z" fill="#1C2E35"/>
<path d="M19.2618 9.81969C18.8703 9.82263 18.479 9.80149 18.09 9.75638C17.6301 9.69865 17.568 9.62602 17.568 9.57015C17.568 9.51428 17.6301 9.43234 18.09 9.37461C18.479 9.3295 18.8703 9.30835 19.2618 9.31129C19.6533 9.30825 20.0447 9.32939 20.4337 9.37461C20.8955 9.43234 20.9575 9.50683 20.9575 9.57015C20.9575 9.63347 20.8955 9.7061 20.4337 9.75638C20.0447 9.8016 19.6533 9.82274 19.2618 9.81969ZM17.6629 9.5627C17.7469 9.63161 18.3364 9.72658 19.2618 9.72658C20.1873 9.72658 20.7786 9.63161 20.8608 9.5627C20.7786 9.49194 20.1891 9.39696 19.2618 9.39696C18.3346 9.39696 17.7469 9.49194 17.6629 9.5627Z" fill="#1C2E35"/>
<path d="M18.5226 9.73776H18.3419V10.2331H18.5226V9.73776Z" fill="#1C2E35"/>
<path d="M20.1817 9.73776H20.001V10.2331H20.1817V9.73776Z" fill="#1C2E35"/>
<path d="M17.3434 9.2964C17.3312 9.29649 17.3193 9.29281 17.3091 9.28583C17.299 9.27884 17.2913 9.26889 17.2868 9.25729C17.2817 9.244 17.2812 9.22928 17.2855 9.21569C17.2899 9.20209 17.2987 9.19046 17.3105 9.1828L19.0884 8.06542V7.8643C19.0887 7.85542 19.0908 7.84672 19.0946 7.83871C19.0984 7.8307 19.1037 7.82357 19.1103 7.81774C19.117 7.81203 19.125 7.8079 19.1335 7.80565C19.142 7.8034 19.1509 7.80307 19.1595 7.8047L19.2618 7.82333L19.3658 7.8047C19.3742 7.80309 19.3828 7.80343 19.391 7.80569C19.3992 7.80795 19.4068 7.81207 19.4133 7.81774C19.4201 7.82333 19.4256 7.83041 19.4294 7.83847C19.4332 7.84653 19.4352 7.85536 19.4352 7.8643V8.06542L21.213 9.1828C21.2254 9.1899 21.2349 9.20139 21.2396 9.21511C21.2443 9.22883 21.2439 9.24383 21.2385 9.25729C21.2332 9.27104 21.2234 9.28247 21.2108 9.28961C21.1981 9.29675 21.1834 9.29915 21.1692 9.2964C20.5404 9.17193 19.9021 9.10463 19.2618 9.09527C18.6214 9.10476 17.9831 9.17207 17.3544 9.2964H17.3434ZM19.2618 8.97236C19.8036 8.97919 20.3442 9.02775 20.8789 9.11762L19.3439 8.15854C19.3351 8.15312 19.3277 8.14548 19.3226 8.13635C19.3175 8.12722 19.3148 8.11691 19.3147 8.1064V7.94437H19.2727H19.249H19.2052V8.1064C19.205 8.11667 19.2024 8.12675 19.1976 8.13582C19.1929 8.14488 19.1861 8.15267 19.1778 8.15854L17.6427 9.11762C18.1781 9.02766 18.7193 8.9791 19.2618 8.97236Z" fill="#1C2E35"/>
<path d="M19.3531 10.451H19.1706V9.5385C19.1698 9.52577 19.1716 9.51302 19.1757 9.50099C19.1798 9.48895 19.1861 9.47785 19.1945 9.46834C19.2028 9.45882 19.2128 9.45107 19.2241 9.44553C19.2353 9.44 19.2475 9.43678 19.26 9.43607C19.2726 9.43654 19.2851 9.43958 19.2965 9.44502C19.308 9.45045 19.3183 9.45816 19.3268 9.4677C19.3353 9.47724 19.3418 9.48842 19.346 9.50058C19.3502 9.51273 19.352 9.52562 19.3513 9.5385L19.3531 10.451Z" fill="#EEEFE1"/>
<path d="M19.3987 10.4883H19.1267V9.53851C19.126 9.51968 19.1289 9.50088 19.1353 9.4832C19.1417 9.46551 19.1514 9.44928 19.164 9.43545C19.1765 9.42161 19.1916 9.41043 19.2084 9.40255C19.2252 9.39467 19.2433 9.39025 19.2618 9.38953C19.2992 9.39098 19.3346 9.40744 19.3602 9.43533C19.3858 9.46322 19.3997 9.5003 19.3987 9.53851V10.4883ZM19.2161 10.3952H19.3056V9.53851C19.3063 9.53166 19.3058 9.52472 19.3039 9.51809C19.302 9.51147 19.2988 9.50529 19.2946 9.49992C19.2903 9.49455 19.2851 9.4901 19.2791 9.48681C19.2732 9.48353 19.2667 9.48148 19.2599 9.48078C19.2467 9.48264 19.2347 9.48973 19.2265 9.50052C19.2183 9.51131 19.2146 9.52495 19.2161 9.53851V10.3952Z" fill="#1C2E35"/>
<path d="M17.9567 10.4976H17.7742V9.59995C17.7739 9.58756 17.7761 9.57526 17.7806 9.56374C17.7851 9.55223 17.7918 9.54175 17.8003 9.5329C17.8088 9.52406 17.8189 9.51703 17.8301 9.51223C17.8413 9.50744 17.8533 9.50497 17.8655 9.50497C17.8774 9.50522 17.8893 9.50786 17.9002 9.51277C17.9112 9.51767 17.9212 9.52474 17.9295 9.53356C17.9378 9.54238 17.9443 9.55278 17.9486 9.56417C17.953 9.57556 17.9551 9.58772 17.9549 9.59995L17.9567 10.4976Z" fill="#EEEFE1"/>
<path d="M18.0023 10.5441H17.7303V9.59997C17.7303 9.56275 17.7447 9.52703 17.7703 9.50054C17.796 9.47405 17.8308 9.45892 17.8672 9.45844C17.8852 9.45868 17.903 9.46253 17.9195 9.46977C17.936 9.47702 17.951 9.48751 17.9635 9.50066C17.9761 9.5138 17.9859 9.52933 17.9926 9.54637C17.9993 9.56341 18.0026 9.58162 18.0023 9.59997V10.5441ZM17.8198 10.451H17.9092V9.59997C17.9097 9.58743 17.9054 9.57518 17.8973 9.5658C17.8891 9.55642 17.8777 9.55064 17.8654 9.54969C17.8592 9.54993 17.8531 9.55142 17.8474 9.55407C17.8417 9.55673 17.8366 9.5605 17.8324 9.56517C17.8281 9.56984 17.8249 9.57532 17.8227 9.58129C17.8205 9.58726 17.8195 9.59361 17.8198 9.59997V10.451Z" fill="#1C2E35"/>
<path d="M20.7494 10.4976H20.5669V9.59995C20.5667 9.58772 20.5688 9.57556 20.5732 9.56417C20.5775 9.55278 20.584 9.54238 20.5923 9.53356C20.6007 9.52474 20.6106 9.51767 20.6216 9.51277C20.6325 9.50786 20.6444 9.50522 20.6564 9.50497C20.6807 9.50546 20.7039 9.51568 20.721 9.53344C20.7381 9.5512 20.7476 9.57508 20.7476 9.59995L20.7494 10.4976Z" fill="#EEEFE1"/>
<path d="M20.7932 10.5441H20.5267V9.59997C20.5265 9.58162 20.5298 9.56341 20.5365 9.54637C20.5431 9.52933 20.553 9.5138 20.5655 9.50066C20.5781 9.48751 20.593 9.47702 20.6096 9.46977C20.6261 9.46253 20.6438 9.45868 20.6618 9.45844C20.6798 9.45868 20.6975 9.46253 20.7141 9.46977C20.7306 9.47702 20.7455 9.48751 20.7581 9.50066C20.7706 9.5138 20.7805 9.52933 20.7872 9.54637C20.7938 9.56341 20.7971 9.58162 20.7969 9.59997L20.7932 10.5441ZM20.6107 10.451H20.702V9.59997C20.7022 9.59361 20.7012 9.58726 20.6991 9.58129C20.6969 9.57532 20.6936 9.56984 20.6894 9.56517C20.6851 9.5605 20.68 9.55673 20.6744 9.55407C20.6687 9.55142 20.6626 9.54993 20.6563 9.54969C20.6501 9.54993 20.644 9.55142 20.6383 9.55407C20.6326 9.55673 20.6275 9.5605 20.6233 9.56517C20.6191 9.56984 20.6158 9.57532 20.6136 9.58129C20.6114 9.58726 20.6105 9.59361 20.6107 9.59997V10.451Z" fill="#1C2E35"/>
<path d="M17.4858 10.5609H17.3344V11.9018H17.4858V10.5609Z" fill="#1C2E35"/>
<path d="M21.183 10.5412L21.0315 10.5421L21.0392 11.9034L21.1907 11.9025L21.183 10.5412Z" fill="#1C2E35"/>
<path d="M23.8322 30.4073L21.934 32.292L21.662 32.3423C21.662 32.3423 21.3517 32.5788 21.2312 32.5583C21.1108 32.5378 20.2091 33.3181 19.9243 33.2548C19.8331 33.2343 19.7564 33.1505 19.6597 33.143C19.6023 33.1358 19.5477 33.1134 19.5013 33.0782C19.4549 33.0429 19.4183 32.9959 19.395 32.9419C19.395 32.9419 18.6047 33.6645 18.4094 33.6645C18.2141 33.6645 17.964 33.0574 17.964 33.0574C17.964 33.0574 15.8102 31.8357 15.1093 31.0908C14.9837 31.0667 14.8612 31.028 14.7442 30.9753C14.7347 30.9208 14.7134 30.869 14.6819 30.8239C14.6503 30.7788 14.6092 30.7415 14.5617 30.7146C14.4595 30.6457 14.1182 30.3422 13.8864 30.1317L13.6582 29.925H13.9594L14.5708 29.3402L14.6311 29.0739C14.9077 29.16 15.1902 29.2254 15.4762 29.2695C15.6733 29.2695 17.5971 28.4706 18.1374 28.2434C18.225 28.2042 18.278 28.1838 18.278 28.1838L18.643 27.9975L19.1742 28.6624L21.2641 28.1614C21.2641 28.1614 21.9668 29.0926 22.1767 29.154C22.3866 29.2155 23.3924 29.0423 23.5731 29.0628C23.7538 29.0832 24.2466 29.7388 24.2466 29.7388L24.3159 29.925C24.3159 29.925 23.8012 30.0051 23.8322 30.4073Z" fill="#1C2E35"/>
<path d="M20.3095 29.6438C20.1446 29.6264 19.9786 29.622 19.8131 29.6308C19.6944 29.722 19.5995 29.7667 19.5265 29.7425C19.4535 29.7183 19.4626 29.6326 19.4553 29.5041C19.4442 29.4346 19.4164 29.3689 19.3744 29.313C19.3323 29.2571 19.2773 29.2127 19.2144 29.1838C19.0935 29.0986 18.9946 28.9849 18.926 28.8523C18.8296 28.7299 18.7039 28.6349 18.5609 28.5767C18.4934 28.5637 17.9075 28.6996 17.5771 28.7443C17.2982 28.7834 17.0275 28.869 16.7758 28.9976C16.7758 29.1838 16.5659 29.2918 16.2611 29.2509C16.0382 29.3902 15.8313 29.5545 15.6442 29.7406C15.5054 29.884 15.4397 30.128 15.3174 30.1429C15.1856 30.1689 15.0683 30.2447 14.9889 30.3552C15.0008 30.274 15.0367 30.1984 15.0918 30.1385C15.147 30.0786 15.2186 30.0372 15.2974 30.02C15.3141 29.95 15.3269 29.8791 15.3357 29.8077C15.3262 29.7443 15.3109 29.6819 15.2901 29.6215C14.7892 29.6449 14.307 29.8221 13.9065 30.1299L13.6783 29.9231H13.9795L14.591 29.3384L14.6512 29.0721C14.9279 29.1582 15.2103 29.2235 15.4963 29.2676C15.6934 29.2676 17.6173 28.4687 18.1576 28.2415L18.3145 28.3048C18.4514 28.437 18.5737 28.1651 18.5737 28.1651L18.6595 28.1409C18.7973 28.3702 18.9595 28.5831 19.1432 28.776C19.2691 28.9063 19.5082 29.2527 19.6214 29.3924C19.874 29.3825 20.1205 29.4726 20.3095 29.6438Z" fill="#EEEFE1"/>
<path d="M15.0199 30.709L15.1367 30.9139L16.4144 29.6196C16.1631 29.7512 15.9193 29.8973 15.6843 30.0572C15.5711 30.1731 15.4667 30.2976 15.3722 30.4297C15.3109 30.4792 15.24 30.5148 15.1641 30.534L15.0199 30.709Z" fill="#EEEFE1"/>
<path d="M16.7575 30.493L16.3158 30.9865C16.313 30.8751 16.3515 30.7667 16.4235 30.683C16.5128 30.5858 16.6295 30.5194 16.7575 30.493Z" fill="#EEEFE1"/>
<path d="M19.4973 31.5471C19.6976 31.5808 19.9004 31.5964 20.1033 31.5936C20.3524 31.5895 20.6008 31.5653 20.8462 31.521C21.016 31.487 21.188 31.4665 21.3609 31.4595C21.0653 31.3837 20.7645 31.3308 20.4611 31.3012C20.323 31.3238 20.1904 31.3731 20.0704 31.4465C20.0704 31.4465 19.6707 31.3944 19.4973 31.5471Z" fill="#EEEFE1"/>
<path d="M20.3442 31.2063C20.3442 31.2063 21.6895 31.0573 22.1914 31.0666C22.0509 30.9083 21.5179 30.8059 21.2222 30.8059C20.9265 30.8059 20.3442 31.2063 20.3442 31.2063Z" fill="#EEEFE1"/>
<path d="M16.9017 30.6234V30.6867C16.979 30.6683 17.0538 30.6401 17.1244 30.6029C17.3008 30.4886 17.5019 30.4201 17.7103 30.4036C17.9366 30.4036 17.9421 30.4949 18.0753 30.3868C18.1147 30.3497 18.1658 30.3282 18.2193 30.3261C18.2729 30.3241 18.3254 30.3417 18.3674 30.3757C18.4203 30.4129 18.8292 30.7183 18.8638 30.7258C18.8985 30.7332 19.0756 30.6066 19.3786 30.5042C19.5985 30.428 19.8228 30.3658 20.0503 30.3179C20.0868 30.3179 20.085 30.2695 20.1288 30.2751C20.1726 30.2807 20.2456 30.4613 20.3733 30.5153C20.5011 30.5693 20.8388 30.5153 20.9209 30.5153C21.0993 30.5345 21.2795 30.5155 21.4503 30.4595C21.2528 30.4521 21.0565 30.4247 20.8643 30.3775C20.8643 30.3775 20.8643 30.223 20.5321 30.2621C20.4245 30.0907 20.3496 29.9697 20.2949 29.9585C20.1637 29.9635 20.0368 30.0075 19.9298 30.0852C19.498 30.1296 19.0743 30.2342 18.6704 30.3962C18.5647 30.3449 18.4664 30.2791 18.3783 30.2006C18.3783 30.2006 18.3783 30.0144 18.267 29.9678C18.1556 29.9213 18.1502 30.0088 18.0187 30.0758L17.1956 30.5004L16.9856 30.5135C16.9322 30.5202 16.8832 30.5475 16.8488 30.5898L16.9017 30.6234Z" fill="#EEEFE1"/>
<path d="M20.3168 29.3514C20.3963 29.3822 20.4656 29.4352 20.517 29.5044C20.5683 29.5736 20.5995 29.6561 20.607 29.7425C20.679 29.7387 20.7509 29.7521 20.8169 29.7816C20.7661 29.7024 20.7353 29.6115 20.7275 29.5172C20.7275 29.5172 20.4719 29.3291 20.3168 29.3514Z" fill="#EEEFE1"/>
<path d="M20.3826 28.3756L21.1017 28.4203C21.1017 28.4203 21.182 29.0404 21.2842 29.141C21.3078 29.1109 21.3253 29.0762 21.3357 29.0392C21.346 29.0021 21.349 28.9633 21.3445 28.925C21.3844 29.0093 21.4524 29.0763 21.5363 29.1142C21.6203 29.152 21.7146 29.1582 21.8026 29.1317C21.9832 29.3473 22.152 29.573 22.3082 29.8077C22.3082 29.8077 22.3666 29.7835 22.405 29.871C22.4433 29.9585 22.4889 30.1336 22.5875 30.1783C22.75 30.2194 22.9214 30.2023 23.073 30.1299C22.9815 30.137 22.8903 30.1127 22.8138 30.061H22.9106C22.9106 30.061 22.5455 29.601 22.5784 29.5377L22.3228 29.4892C22.3941 29.448 22.4731 29.4226 22.5546 29.4147C22.6177 29.4192 22.6795 29.4349 22.7372 29.4613C22.7372 29.4613 23.9072 29.7202 24.0714 29.7127C23.8865 29.5387 23.7133 29.352 23.5531 29.154L22.6879 29.141L22.2626 29.1596C22.2626 29.1596 22.2626 29.3105 22.2151 29.3123C21.9011 29.0449 21.6104 28.7502 21.3463 28.4315C21.2295 28.2657 21.1638 28.1838 21.1638 28.1838L20.3826 28.3756Z" fill="#EEEFE1"/>
<path d="M20.2986 29.4632C20.3426 29.4874 20.3806 29.5214 20.41 29.5627C20.4394 29.6039 20.4593 29.6514 20.4683 29.7015L20.2986 29.4632Z" fill="#EEEFE1"/>
<path d="M21.191 29.6941C21.1345 29.7555 21.3352 29.8803 21.421 29.8803C21.3644 29.7704 21.2349 29.6475 21.191 29.6941Z" fill="#EEEFE1"/>
<path d="M22.5034 30.4241C22.6098 30.4876 22.7291 30.5253 22.852 30.534C22.9747 30.5232 23.0965 30.5052 23.2171 30.48C23.0601 30.4688 22.9634 30.3626 22.852 30.3626C22.7345 30.3745 22.618 30.395 22.5034 30.4241Z" fill="#EEEFE1"/>
<path d="M19.1012 31.7184C19.3732 31.7054 19.5685 31.7594 19.5685 31.8097C19.5685 31.8599 19.1012 31.7184 19.1012 31.7184Z" fill="#EEEFE1"/>
<path d="M18.4094 33.7409C18.1922 33.7409 17.9787 33.2883 17.9057 33.1114C17.6629 32.9736 15.7555 31.873 15.071 31.1597C14.706 31.0759 14.6932 31.0387 14.6786 31.0051L14.6676 30.9679C14.659 30.9288 14.6423 30.892 14.6187 30.8599C14.5951 30.8278 14.5651 30.8011 14.5307 30.7817C14.4267 30.7109 14.1018 30.4223 13.8481 30.1932L13.6181 29.9865C13.6071 29.9756 13.5994 29.9618 13.5958 29.9466C13.5923 29.9315 13.593 29.9156 13.598 29.9008C13.6036 29.8863 13.6134 29.8739 13.6262 29.8652C13.6389 29.8565 13.6539 29.8521 13.6692 29.8524H13.9412L14.5143 29.3049L14.5691 29.0609C14.5716 29.0507 14.5761 29.0411 14.5824 29.0328C14.5887 29.0245 14.5966 29.0176 14.6056 29.0125C14.6148 29.0083 14.6247 29.0061 14.6348 29.0061C14.6449 29.0061 14.6548 29.0083 14.664 29.0125C14.9344 29.0943 15.21 29.1566 15.489 29.1987C15.6113 29.1987 16.6681 28.7909 18.1192 28.1782L18.2561 28.1186L18.6212 27.9324C18.6367 27.9246 18.6543 27.9224 18.6712 27.9261C18.6881 27.9298 18.7033 27.9392 18.7143 27.9529L19.2162 28.5804L21.2569 28.0869C21.2709 28.084 21.2855 28.085 21.299 28.09C21.3125 28.0949 21.3245 28.1035 21.3335 28.1149C21.6201 28.4873 22.0801 29.046 22.2096 29.0833C22.4911 29.0941 22.773 29.0766 23.0511 29.0311C23.2322 29.0022 23.4153 28.9879 23.5987 28.9883C23.7958 29.0106 24.2028 29.5339 24.3288 29.6941C24.3329 29.6997 24.336 29.706 24.3379 29.7127L24.4091 29.8989C24.4136 29.9095 24.4159 29.9209 24.4159 29.9325C24.4159 29.944 24.4136 29.9554 24.4091 29.966C24.4031 29.9758 24.3951 29.9842 24.3856 29.9906C24.3762 29.997 24.3655 30.0013 24.3543 30.0032C24.3361 30.0032 23.9017 30.0703 23.9272 30.4018C23.9282 30.4132 23.9265 30.4247 23.9224 30.4353C23.9183 30.446 23.9118 30.4555 23.9035 30.4632L21.987 32.346C21.9761 32.3571 21.962 32.3643 21.9468 32.3665L21.6931 32.4149C21.5596 32.5298 21.3982 32.6058 21.2258 32.6347C21.0983 32.7008 20.9762 32.7775 20.8608 32.8637C20.4373 33.1542 20.0978 33.3721 19.908 33.3293C19.858 33.3172 19.8105 33.2964 19.7674 33.2678C19.7327 33.2426 19.6927 33.2261 19.6506 33.2194C19.5425 33.2051 19.4435 33.1499 19.3732 33.0648C19.1304 33.2827 18.5956 33.7409 18.4094 33.7409ZM14.8137 30.9362C14.9156 30.9729 15.0199 31.0021 15.1258 31.0238C15.1403 31.0275 15.1536 31.0352 15.1641 31.0461C15.8486 31.7743 17.9805 32.9885 18.0006 32.9997C18.0152 33.0082 18.0267 33.0212 18.0334 33.0369C18.1429 33.3014 18.3236 33.5956 18.4094 33.5956C18.4952 33.5956 18.9753 33.2231 19.3458 32.8916C19.3556 32.8829 19.3676 32.8769 19.3804 32.8743C19.3932 32.8717 19.4064 32.8725 19.4188 32.8768C19.4312 32.8806 19.4424 32.8878 19.4511 32.8977C19.4598 32.9075 19.4657 32.9196 19.4681 32.9326C19.4878 32.9701 19.516 33.0023 19.5502 33.0266C19.5845 33.0508 19.6239 33.0665 19.6652 33.0723C19.7304 33.0808 19.7929 33.1043 19.8477 33.1412C19.8777 33.1613 19.9103 33.1769 19.9445 33.1878C20.0887 33.2175 20.5231 32.9214 20.7823 32.7427C21.0707 32.5453 21.1747 32.4782 21.2477 32.4894C21.3823 32.4501 21.5068 32.3815 21.6128 32.2883C21.6218 32.2813 21.6325 32.2768 21.6438 32.2752L21.892 32.2287L23.7502 30.3831C23.7502 30.0777 24.0148 29.9287 24.2156 29.8747L24.1809 29.7853C23.9546 29.4837 23.6553 29.1578 23.5676 29.1484C23.3978 29.1528 23.2284 29.1671 23.0602 29.1913C22.7627 29.2449 22.4598 29.2606 22.1585 29.2378C21.9505 29.1764 21.4047 28.478 21.235 28.2564L19.1943 28.7462C19.1804 28.7498 19.1658 28.7492 19.1522 28.7446C19.1386 28.74 19.1266 28.7315 19.1176 28.7201L18.6248 28.1018L18.3163 28.2601L18.1776 28.3197C17.265 28.7052 15.7044 29.3514 15.4872 29.3514C15.2213 29.3154 14.9587 29.2568 14.7023 29.1764L14.6603 29.3626C14.6572 29.3771 14.6495 29.3902 14.6384 29.3999L14.0251 29.9846C14.0111 29.9975 13.9929 30.0048 13.974 30.0051H13.87L13.9503 30.0777C14.2989 30.3943 14.5435 30.6029 14.6184 30.6532C14.6681 30.6843 14.711 30.7255 14.7446 30.7742C14.7782 30.8228 14.8017 30.878 14.8137 30.9362Z" fill="#1C2E35"/>
</svg>
