<svg width="16" height="16" viewBox="0 0 16 16" fill="none" xmlns="http://www.w3.org/2000/svg">
<path d="M6.5 11.375C6.5 11.5813 6.33125 11.75 6.125 11.75C5.91875 11.75 5.75 11.5813 5.75 11.375V6.5C5.75 6.29375 5.91875 6.125 6.125 6.125C6.33125 6.125 6.5 6.29375 6.5 6.5V11.375ZM8.375 11.375C8.375 11.5813 8.20625 11.75 8 11.75C7.79375 11.75 7.625 11.5813 7.625 11.375V6.5C7.625 6.29375 7.79375 6.125 8 6.125C8.20625 6.125 8.375 6.29375 8.375 6.5V11.375ZM10.25 11.375C10.25 11.5813 10.0813 11.75 9.875 11.75C9.66875 11.75 9.5 11.5813 9.5 11.375V6.5C9.5 6.29375 9.66875 6.125 9.875 6.125C10.0813 6.125 10.25 6.29375 10.25 6.5V11.375ZM10.1914 2.58453L11.0516 3.875H12.6875C12.9992 3.875 13.25 4.12695 13.25 4.4375C13.25 4.74922 12.9992 5 12.6875 5H12.5V12.125C12.5 13.1609 11.6609 14 10.625 14H5.375C4.33953 14 3.5 13.1609 3.5 12.125V5H3.3125C3.00195 5 2.75 4.74922 2.75 4.4375C2.75 4.12695 3.00195 3.875 3.3125 3.875H4.94891L5.80859 2.58453C6.05234 2.2193 6.4625 2 6.90078 2H9.09922C9.5375 2 9.94766 2.21933 10.1914 2.58453ZM6.30078 3.875H9.69922L9.25391 3.20844C9.21875 3.15641 9.16016 3.125 9.09922 3.125H6.90078C6.83984 3.125 6.76016 3.15641 6.74609 3.20844L6.30078 3.875ZM4.625 12.125C4.625 12.5398 4.96086 12.875 5.375 12.875H10.625C11.0398 12.875 11.375 12.5398 11.375 12.125V5H4.625V12.125Z" fill="#1C2E35"/>
</svg>
